<?xml version="1.0" encoding="UTF-8"?>
<svg version="1.1" xmlns="http://www.w3.org/2000/svg" width="285" height="124">
<path d="M0 0 C94.05 0 188.1 0 285 0 C285 40.92 285 81.84 285 124 C190.95 124 96.9 124 0 124 C0 83.08 0 42.16 0 0 Z " fill="#FAFAFA" transform="translate(0,0)"/>
<path d="M0 0 C3.375 2.0625 3.375 2.0625 6 5 C6.6875 8.5 6.6875 8.5 6 12 C3.9375 14.3125 3.9375 14.3125 1 17 C-0.13999352 18.49416627 -1.24068639 20.01869508 -2.3125 21.5625 C-3.21935547 22.84640625 -3.21935547 22.84640625 -4.14453125 24.15625 C-6.07628721 27.01323898 -6.07628721 27.01323898 -7.69921875 30.28125 C-9.575156 33.69944369 -11.15669404 36.3190433 -14 39 C-19.45203338 40.39071177 -23.18877895 40.20754361 -29 40 C-19.43 40.33 -9.86 40.66 0 41 C0 50.79928725 -1.56971797 62.31596647 -8.671875 69.75 C-11.60790405 72.3598036 -14.43684962 74.32781978 -18 76 C-16.5459375 76.4640625 -16.5459375 76.4640625 -15.0625 76.9375 C-12 78 -12 78 -11 79 C-10.95936168 80.66617115 -10.957279 82.33388095 -11 84 C-19.31000792 84.04628625 -27.61996221 84.0818502 -35.93006706 84.10362434 C-39.78854797 84.11407343 -43.64694085 84.128253 -47.50537109 84.15087891 C-51.22712192 84.1725674 -54.94878794 84.18456014 -58.67059708 84.18975449 C-60.09241191 84.19345745 -61.51422197 84.20068819 -62.93600082 84.21146011 C-64.92327114 84.22592119 -66.91062631 84.22681646 -68.89794922 84.22705078 C-70.03046112 84.231492 -71.16297302 84.23593323 -72.32980347 84.24050903 C-75 84 -75 84 -77 82 C-76.8125 79.5 -76.8125 79.5 -76 77 C-74.515 76.01 -74.515 76.01 -73 75 C-73.56847656 74.6596875 -74.13695313 74.319375 -74.72265625 73.96875 C-84.19889608 68.02039244 -90.59269032 60.82736008 -94 50 C-94.44847119 47.00791451 -94.75507333 44.01508887 -95 41 C-70.0664243 40.0247428 -70.0664243 40.0247428 -60 46 C-57.64237647 46.83188873 -55.27976959 47.54580052 -52.875 48.2265625 C-50.65267565 49.14327129 -49.49006935 50.1202202 -48 52 C-47.57521414 56.07794425 -47.68717413 57.53076119 -50 61 C-47.69 59.35 -45.38 57.7 -43 56 C-43.33 54.35 -43.66 52.7 -44 51 C-44 51.33 -44 51.66 -44 52 C-44 53.32 -44 54.64 -44 56 C-44.66 56 -45.32 56 -46 56 C-46.23203125 54.37191406 -46.23203125 54.37191406 -46.46875 52.7109375 C-47.16117885 50.30317355 -47.56130106 49.28241878 -49.69140625 47.91113281 C-51.93769802 47.04095717 -54.19245867 46.31642768 -56.5 45.625 C-64.54873029 42.87342018 -70.58811438 39.83733764 -76 33 C-78.05452931 28.72631563 -78.96384611 24.69766439 -78 20 C-74.25880823 12.41804102 -67.49751906 7.7747563 -59.8125 4.7421875 C-52.32955351 2.26519364 -45.70302798 0.34689456 -38.125 3.375 C-35 5 -35 5 -33 7 C-33.0625 10.4375 -33.0625 10.4375 -34 14 C-37.58178412 16.77808988 -40.1259135 17.34535503 -44.59765625 17.15234375 C-45.64630859 17.12462891 -46.69496094 17.09691406 -47.77539062 17.06835938 C-49.9708554 16.98095822 -52.16617369 16.8897983 -54.36132812 16.79492188 C-55.40869141 16.76849609 -56.45605469 16.74207031 -57.53515625 16.71484375 C-58.487854 16.67480225 -59.44055176 16.63476074 -60.42211914 16.59350586 C-63.81889879 17.12912837 -64.94093346 18.29563857 -67 21 C-67.72112998 25.96778433 -67.64079353 27.92512054 -65.0625 32.25 C-61.76369625 35.70949047 -57.50514652 37.56577733 -53 39 C-52.01 39 -51.02 39 -50 39 C-49.67 33.39 -49.34 27.78 -49 22 C-47.02 22 -45.04 22 -43 22 C-42.505 25.465 -42.505 25.465 -42 29 C-41.79246094 28.46890625 -41.58492187 27.9378125 -41.37109375 27.390625 C-39.34913791 22.75450869 -37.5401364 19.93638495 -32.94921875 17.67578125 C-29.64718076 16.53098652 -26.48049768 16.24424545 -23 16 C-23.33 18.64 -23.66 21.28 -24 24 C-23.01 24 -22.02 24 -21 24 C-18.91946757 21.61429192 -18.91946757 21.61429192 -16.9375 18.625 C-13.11392405 13.11392405 -13.11392405 13.11392405 -11 11 C-10.814375 9.329375 -10.814375 9.329375 -10.625 7.625 C-10 4 -10 4 -8.3125 1.5625 C-5.2031761 -0.53839453 -3.69155527 -0.66447995 0 0 Z " fill="#057A35" transform="translate(139,30)"/>
<path d="M0 0 C3.375 2.0625 3.375 2.0625 6 5 C6.6875 8.5 6.6875 8.5 6 12 C3.9375 14.3125 3.9375 14.3125 1 17 C-0.13999352 18.49416627 -1.24068639 20.01869508 -2.3125 21.5625 C-3.21935547 22.84640625 -3.21935547 22.84640625 -4.14453125 24.15625 C-6.07628721 27.01323898 -6.07628721 27.01323898 -7.69921875 30.28125 C-9.575156 33.69944369 -11.15669404 36.3190433 -14 39 C-19.45203338 40.39071177 -23.18877895 40.20754361 -29 40 C-19.43 40.33 -9.86 40.66 0 41 C0 43.31 0 45.62 0 48 C-0.33 48 -0.66 48 -1 48 C-1 46.02 -1 44.04 -1 42 C-13.87 42.33 -26.74 42.66 -40 43 C-38.02 44.65 -36.04 46.3 -34 48 C-32.44975536 51.10048928 -32.71007985 53.57894218 -33 57 C-35.54110149 61.30032559 -38.46902688 63.04344342 -43 65 C-42.690625 65.721875 -42.38125 66.44375 -42.0625 67.1875 C-41.042684 69.88701295 -40.2214175 72.12157253 -40 75 C-41.25 77.3125 -41.25 77.3125 -43 79 C-43.99 79 -44.98 79 -46 79 C-46.33 76.69 -46.66 74.38 -47 72 C-48.2065625 71.5359375 -48.2065625 71.5359375 -49.4375 71.0625 C-52 70 -52 70 -53 69 C-53.04092937 66.66702567 -53.04241723 64.33294775 -53 62 C-52.46375 61.7525 -51.9275 61.505 -51.375 61.25 C-48.43575748 59.70303025 -45.74245592 57.86985631 -43 56 C-43.33 54.35 -43.66 52.7 -44 51 C-44 51.33 -44 51.66 -44 52 C-44 53.32 -44 54.64 -44 56 C-44.66 56 -45.32 56 -46 56 C-46.1546875 54.91460937 -46.309375 53.82921875 -46.46875 52.7109375 C-47.16117885 50.30317355 -47.56130106 49.28241878 -49.69140625 47.91113281 C-51.93769802 47.04095717 -54.19245867 46.31642768 -56.5 45.625 C-64.54873029 42.87342018 -70.58811438 39.83733764 -76 33 C-78.05452931 28.72631563 -78.96384611 24.69766439 -78 20 C-74.25880823 12.41804102 -67.49751906 7.7747563 -59.8125 4.7421875 C-52.32955351 2.26519364 -45.70302798 0.34689456 -38.125 3.375 C-35 5 -35 5 -33 7 C-33.0625 10.4375 -33.0625 10.4375 -34 14 C-37.58178412 16.77808988 -40.1259135 17.34535503 -44.59765625 17.15234375 C-45.64630859 17.12462891 -46.69496094 17.09691406 -47.77539062 17.06835938 C-49.9708554 16.98095822 -52.16617369 16.8897983 -54.36132812 16.79492188 C-55.40869141 16.76849609 -56.45605469 16.74207031 -57.53515625 16.71484375 C-58.487854 16.67480225 -59.44055176 16.63476074 -60.42211914 16.59350586 C-63.81889879 17.12912837 -64.94093346 18.29563857 -67 21 C-67.72112998 25.96778433 -67.64079353 27.92512054 -65.0625 32.25 C-61.76369625 35.70949047 -57.50514652 37.56577733 -53 39 C-52.01 39 -51.02 39 -50 39 C-49.67 33.39 -49.34 27.78 -49 22 C-47.02 22 -45.04 22 -43 22 C-42.505 25.465 -42.505 25.465 -42 29 C-41.79246094 28.46890625 -41.58492187 27.9378125 -41.37109375 27.390625 C-39.34913791 22.75450869 -37.5401364 19.93638495 -32.94921875 17.67578125 C-29.64718076 16.53098652 -26.48049768 16.24424545 -23 16 C-23.33 18.64 -23.66 21.28 -24 24 C-23.01 24 -22.02 24 -21 24 C-18.91946757 21.61429192 -18.91946757 21.61429192 -16.9375 18.625 C-13.11392405 13.11392405 -13.11392405 13.11392405 -11 11 C-10.814375 9.329375 -10.814375 9.329375 -10.625 7.625 C-10 4 -10 4 -8.3125 1.5625 C-5.2031761 -0.53839453 -3.69155527 -0.66447995 0 0 Z " fill="#F2F7EF" transform="translate(139,30)"/>
<path d="M0 0 C0.66 0.66 1.32 1.32 2 2 C1.9375 5.4375 1.9375 5.4375 1 9 C-2.58178412 11.77808988 -5.1259135 12.34535503 -9.59765625 12.15234375 C-10.64630859 12.12462891 -11.69496094 12.09691406 -12.77539062 12.06835938 C-14.9708554 11.98095822 -17.16617369 11.8897983 -19.36132812 11.79492188 C-20.40869141 11.76849609 -21.45605469 11.74207031 -22.53515625 11.71484375 C-23.96420288 11.65478149 -23.96420288 11.65478149 -25.42211914 11.59350586 C-28.81889879 12.12912837 -29.94093346 13.29563857 -32 16 C-32.71384988 20.91763251 -32.8379897 22.65452085 -30.1875 26.91015625 C-26.27570777 31.33539298 -20.74501864 33.25015036 -15.4375 35.5625 C-2.69395983 41.14125102 -2.69395983 41.14125102 0 46 C0.4375 49.3125 0.4375 49.3125 -1 53 C-3.68973612 55.27987157 -6.46464624 57.20487784 -9.43359375 59.10546875 C-11.9662301 60.97507093 -12.9250627 62.09702562 -14 65 C-15.5625 63.8125 -15.5625 63.8125 -17 62 C-17 59.5625 -17 59.5625 -16 57 C-13.47788447 54.67699886 -10.85210143 52.90140096 -8 51 C-8.33 49.35 -8.66 47.7 -9 46 C-9 46.33 -9 46.66 -9 47 C-9 48.32 -9 49.64 -9 51 C-9.66 51 -10.32 51 -11 51 C-11.1546875 49.91460937 -11.309375 48.82921875 -11.46875 47.7109375 C-12.16117885 45.30317355 -12.56130106 44.28241878 -14.69140625 42.91113281 C-16.93769802 42.04095717 -19.19245867 41.31642768 -21.5 40.625 C-29.54873029 37.87342018 -35.58811438 34.83733764 -41 28 C-43.05452931 23.72631563 -43.96384611 19.69766439 -43 15 C-39.25880823 7.41804102 -32.49751906 2.7747563 -24.8125 -0.2578125 C-15.64009424 -3.29404867 -8.78063943 -4.5659325 0 0 Z " fill="#0F7E37" transform="translate(104,35)"/>
<path d="M0 0 C3.375 2.0625 3.375 2.0625 6 5 C6.6875 8.5 6.6875 8.5 6 12 C3.9375 14.3125 3.9375 14.3125 1 17 C-0.13999352 18.49416627 -1.24068639 20.01869508 -2.3125 21.5625 C-3.22515625 22.84447266 -3.22515625 22.84447266 -4.15625 24.15234375 C-6.08839139 27.00515644 -6.08839139 27.00515644 -7.59375 30.31640625 C-9.46554217 33.91960617 -10.89371427 36.36032371 -14 39 C-19.88956039 40.46049131 -26.04370593 39.6872647 -32 39 C-31.67 38.01 -31.34 37.02 -31 36 C-30.34 36 -29.68 36 -29 36 C-28.72003174 35.41138184 -28.44006348 34.82276367 -28.15161133 34.21630859 C-27.08645951 32.16639378 -25.94015669 30.39694844 -24.57421875 28.5390625 C-24.10693359 27.90226562 -23.63964844 27.26546875 -23.15820312 26.609375 C-22.67287109 25.95453125 -22.18753906 25.2996875 -21.6875 24.625 C-20.9769043 23.65433594 -20.9769043 23.65433594 -20.25195312 22.6640625 C-17.98930959 19.59355308 -15.69320399 16.61964652 -13.1796875 13.75 C-10.55090514 10.43340003 -10.53485353 8.12601297 -10 4 C-7.18504724 -0.06604287 -4.84685806 -0.87243445 0 0 Z " fill="#0D7F34" transform="translate(139,30)"/>
<path d="M0 0 C3.49674915 3.81463543 4.92945558 8.12128923 5.25 13.25 C5.1571875 14.24 5.1571875 14.24 5.0625 15.25 C0.80229589 13.2829916 -2.80867944 10.54919201 -6.59765625 7.80859375 C-8.93161708 6.10599119 -8.93161708 6.10599119 -11.9375 5.25 C-10.58205078 6.15492187 -10.58205078 6.15492187 -9.19921875 7.078125 C-8.00757445 7.88506524 -6.81618134 8.69237652 -5.625 9.5 C-5.03009766 9.89574219 -4.43519531 10.29148437 -3.82226562 10.69921875 C-0.58845246 12.90327018 1.95375298 14.93081696 4.0625 18.25 C-14.63092789 18.95887999 -14.63092789 18.95887999 -22.35546875 12.04296875 C-26.63307157 7.19501888 -30.885496 1.406012 -32.9375 -4.75 C-21.03616989 -7.53831162 -10.42728086 -6.21199711 0 0 Z " fill="#72B224" transform="translate(50.9375,50.75)"/>
<path d="M0 0 C0.97904297 0.07025391 1.95808594 0.14050781 2.96679688 0.21289062 C5.3765377 0.38921312 7.78168135 0.5897449 10.1875 0.8125 C9.8575 2.4625 9.5275 4.1125 9.1875 5.8125 C7.2075 5.8125 5.2275 5.8125 3.1875 5.8125 C3.1875 11.4225 3.1875 17.0325 3.1875 22.8125 C-1.9989001 24.10910003 -3.84695078 22.77320519 -8.39453125 20.328125 C-12.30413146 17.87751938 -15.16524382 15.55255118 -16.28125 10.828125 C-16.55465559 7.19183072 -15.9772652 5.05636631 -13.94921875 2.0546875 C-9.32213303 -1.25284326 -5.49360424 -0.51283478 0 0 Z " fill="#F1F5F1" transform="translate(86.8125,46.1875)"/>
<path d="M0 0 C1.98 0 3.96 0 6 0 C5.85870713 2.41700987 5.71213513 4.83350429 5.5625 7.25 C5.50352539 8.27287109 5.50352539 8.27287109 5.44335938 9.31640625 C5.22950348 12.70519971 4.82781925 15.68872298 4 19 C18.85 19 33.7 19 49 19 C49 21.31 49 23.62 49 26 C48.67 26 48.34 26 48 26 C48 24.02 48 22.04 48 20 C35.13 20.33 22.26 20.66 9 21 C10.98 22.65 12.96 24.3 15 26 C16.55024464 29.10048928 16.28992015 31.57894218 16 35 C13.45889851 39.30032559 10.53097312 41.04344342 6 43 C6.309375 43.721875 6.61875 44.44375 6.9375 45.1875 C7.957316 47.88701295 8.7785825 50.12157253 9 53 C7.75 55.3125 7.75 55.3125 6 57 C5.01 57 4.02 57 3 57 C2.67 54.69 2.34 52.38 2 50 C1.195625 49.690625 0.39125 49.38125 -0.4375 49.0625 C-3 48 -3 48 -4 47 C-4.04092937 44.66702567 -4.04241723 42.33294775 -4 40 C-1.83450189 42.16549811 -1.64923117 43.1248334 -1 46 C-0.67 46.33 -0.34 46.66 0 47 C0.309375 46.29875 0.61875 45.5975 0.9375 44.875 C3.06502631 41.90935727 4.54481056 40.94667007 7.625 39.125 C11.0624971 36.94005495 11.85083561 36.38647138 13.375 32.4375 C13.26980019 28.94572567 13.26980019 28.94572567 11.1875 26.375 C7.05569812 23.29640252 2.67614357 21.13377425 -2 19 C-1.67 18.34 -1.34 17.68 -1 17 C-0.76725791 14.12089412 -0.58027243 11.25853505 -0.4375 8.375 C-0.39431641 7.57320312 -0.35113281 6.77140625 -0.30664062 5.9453125 C-0.20048543 3.9637489 -0.09973145 1.98189729 0 0 Z " fill="#B6DDBF" transform="translate(90,52)"/>
<path d="M0 0 C12.46752444 -0.37032251 12.46752444 -0.37032251 14.8984375 1.3203125 C16.59173815 3.90229576 16.31931621 5.99842759 16 9 C15.34 9.66 14.68 10.32 14 11 C14.3557806 14.37991574 15.35715799 17.04288438 17 20 C14.75 20.375 14.75 20.375 12 20 C10.61876037 18.03277992 9.28511874 16.03131672 8 14 C5.87880872 13.04768403 5.87880872 13.04768403 4 13 C4 15.31 4 17.62 4 20 C2.68 20 1.36 20 0 20 C0 13.4 0 6.8 0 0 Z " fill="#162423" transform="translate(206,55)"/>
<path d="M0 0 C1.65 0 3.3 0 5 0 C6.58203125 1.75 6.58203125 1.75 7.8125 4 C8.23144531 4.7425 8.65039062 5.485 9.08203125 6.25 C9.38496094 6.8275 9.68789062 7.405 10 8 C12.12038635 5.38485683 14.13091744 2.80362384 16 0 C17.65 0 19.3 0 21 0 C21 6.6 21 13.2 21 20 C19.68 20 18.36 20 17 20 C16.67 16.04 16.34 12.08 16 8 C14.68 10.64 13.36 13.28 12 16 C7.60841671 14.5361389 7.12052567 12.02168662 5 8 C4.67 11.96 4.34 15.92 4 20 C2.68 20 1.36 20 0 20 C0 13.4 0 6.8 0 0 Z " fill="#222D2C" transform="translate(225,55)"/>
<path d="M0 0 C12.46752444 -0.37032251 12.46752444 -0.37032251 14.8984375 1.3203125 C16.59173815 3.90229576 16.31931621 5.99842759 16 9 C15.34 9.66 14.68 10.32 14 11 C14.39504441 13.9628331 15.59817629 16.38326241 17 19 C14.75 19.3125 14.75 19.3125 12 19 C8 14.89189189 8 14.89189189 8 12 C6.68 12 5.36 12 4 12 C4 14.31 4 16.62 4 19 C2.68 19 1.36 19 0 19 C0 12.73 0 6.46 0 0 Z " fill="#147A3B" transform="translate(185,83)"/>
<path d="M0 0 C1.65 0 3.3 0 5 0 C5.96087136 1.89454824 6.91858969 3.79069581 7.875 5.6875 C8.40867187 6.74324219 8.94234375 7.79898438 9.4921875 8.88671875 C13 16.12953368 13 16.12953368 13 20 C11.68 20 10.36 20 9 20 C8.67 18.68 8.34 17.36 8 16 C3.05 16.495 3.05 16.495 -2 17 C-2.33 17.99 -2.66 18.98 -3 20 C-4.32 20 -5.64 20 -7 20 C-6.42904491 14.43318783 -4.32627551 10.00195208 -2 5 C-1.32165413 3.33805262 -0.64800425 1.67401097 0 0 Z " fill="#303A39" transform="translate(255,55)"/>
<path d="M0 0 C1.65 0 3.3 0 5 0 C5.96087136 1.89454824 6.91858969 3.79069581 7.875 5.6875 C8.40867188 6.74324219 8.94234375 7.79898438 9.4921875 8.88671875 C13 16.12953368 13 16.12953368 13 20 C11.68 20 10.36 20 9 20 C8.67 18.68 8.34 17.36 8 16 C4.7 16 1.4 16 -2 16 C-2.33 17.32 -2.66 18.64 -3 20 C-4.32 20 -5.64 20 -7 20 C-6.29937517 15.43263559 -4.68729793 11.4300495 -2.9375 7.1875 C-2.51500977 6.14819336 -2.51500977 6.14819336 -2.08398438 5.08789062 C-1.39325027 3.39032376 -0.69716272 1.69493688 0 0 Z " fill="#162322" transform="translate(191,55)"/>
<path d="M0 0 C4.50621593 1.37708868 8.5290426 3.16295181 12.6875 5.375 C13.80511719 5.96023437 14.92273438 6.54546875 16.07421875 7.1484375 C18.87637066 8.92176194 20.37101612 10.14786906 22 13 C22.375 16.25 22.375 16.25 21 20 C18.31305837 22.2853955 15.53645027 24.2041759 12.56640625 26.10546875 C10.0337699 27.97507093 9.0749373 29.09702562 8 32 C6.4375 30.8125 6.4375 30.8125 5 29 C5 26.5625 5 26.5625 6 24 C8.52211553 21.67699886 11.14789857 19.90140096 14 18 C13.67 16.35 13.34 14.7 13 13 C13 13.33 13 13.66 13 14 C13 15.32 13 16.64 13 18 C12.34 18 11.68 18 11 18 C9.875 10.375 9.875 10.375 11 7 C7.37 5.35 3.74 3.7 0 2 C0 1.34 0 0.68 0 0 Z " fill="#127833" transform="translate(82,68)"/>
<path d="M0 0 C4.95 0 9.9 0 15 0 C15 0.99 15 1.98 15 3 C11.37 3 7.74 3 4 3 C4 4.98 4 6.96 4 9 C7.3 9 10.6 9 14 9 C14 9.99 14 10.98 14 12 C11.03 12 8.06 12 5 12 C5 13.65 5 15.3 5 17 C8.63 17 12.26 17 16 17 C16 18.32 16 19.64 16 21 C10.72 21 5.44 21 0 21 C0 14.07 0 7.14 0 0 Z " fill="#3E8155" transform="translate(204,82)"/>
<path d="M0 0 C1.32 0 2.64 0 4 0 C4 2.64 4 5.28 4 8 C7.3 8 10.6 8 14 8 C14 5.36 14 2.72 14 0 C15.32 0 16.64 0 18 0 C18 6.6 18 13.2 18 20 C16.68 20 15.36 20 14 20 C14 17.03 14 14.06 14 11 C10.7 11 7.4 11 4 11 C4 13.97 4 16.94 4 20 C2.68 20 1.36 20 0 20 C0 13.4 0 6.8 0 0 Z " fill="#1D2E2C" transform="translate(164,55)"/>
<path d="M0 0 C1.65 0 3.3 0 5 0 C11.51936219 12.48519362 11.51936219 12.48519362 13 19 C10.5625 18.625 10.5625 18.625 8 18 C7.67 17.34 7.34 16.68 7 16 C4.03 16 1.06 16 -2 16 C-2.33 16.99 -2.66 17.98 -3 19 C-4.32 19 -5.64 19 -7 19 C-6.39294514 14.87202695 -5.06000669 11.62561178 -3 8 C-2.34 7.67 -1.68 7.34 -1 7 C-0.67 8.65 -0.34 10.3 0 12 C1.98 12 3.96 12 6 12 C5.01 10.02 4.02 8.04 3 6 C2.67 6.66 2.34 7.32 2 8 C1.34 8 0.68 8 0 8 C-1.125 2.25 -1.125 2.25 0 0 Z " fill="#1B6C39" transform="translate(170,83)"/>
<path d="M0 0 C-2.17676802 9.833645 -2.17676802 9.833645 -5.6875 13 C-9.5462182 15.32979212 -12.59335466 16.16425692 -17 17 C-17 16.34 -17 15.68 -17 15 C-15.03852126 13.61061923 -13.03833424 12.2739589 -11 11 C-11.598125 11.309375 -12.19625 11.61875 -12.8125 11.9375 C-15 13 -15 13 -18 14 C-17.74266867 10.31158421 -17.22831719 8.30680122 -15 5.3125 C-10.54254231 1.87654303 -5.65866061 0 0 0 Z " fill="#7AB928" transform="translate(116,46)"/>
<path d="M0 0 C0.33 1.32 0.66 2.64 1 4 C0.30132812 3.97679688 -0.39734375 3.95359375 -1.1171875 3.9296875 C-2.48230469 3.90261719 -2.48230469 3.90261719 -3.875 3.875 C-4.77992188 3.85179688 -5.68484375 3.82859375 -6.6171875 3.8046875 C-9.18806994 3.75675164 -9.18806994 3.75675164 -11 6 C-11.34490322 10.05261287 -11.30163882 11.54754176 -9 15 C-6.56306689 15.36416047 -6.56306689 15.36416047 -3.875 15.1875 C-2.50988281 15.14689453 -2.50988281 15.14689453 -1.1171875 15.10546875 C-0.41851562 15.07066406 0.28015625 15.03585938 1 15 C1 15.99 1 16.98 1 18 C-2.71891471 19.85945736 -6.94112341 19.42691481 -11 19 C-14.125 17.625 -14.125 17.625 -16 15 C-17.00701976 10.02364402 -16.74494349 6.28438532 -14.1875 1.875 C-9.52877663 -0.86542551 -5.27778232 -0.41593731 0 0 Z " fill="#177136" transform="translate(160,83)"/>
<path d="M0 0 C3.3 0 6.6 0 10 0 C10 0.66 10 1.32 10 2 C7.69 2 5.38 2 3 2 C3 4.64 3 7.28 3 10 C7.09481279 9.28182774 7.09481279 9.28182774 11 8 C12.70198927 5.62529562 12.70198927 5.62529562 13 3 C12.67 2.34 12.34 1.68 12 1 C13.32 1.66 14.64 2.32 16 3 C16.3125 5.75 16.3125 5.75 16 9 C13.83746443 11.56801099 12.2778092 12.85355976 8.88671875 13.2421875 C6.92283161 13.24916401 4.95940162 13.13284079 3 13 C3 14.98 3 16.96 3 19 C2.01 19 1.02 19 0 19 C0 12.73 0 6.46 0 0 Z " fill="#0E1B1B" transform="translate(146,56)"/>
<path d="M0 0 C2.31 0 4.62 0 7 0 C7.20625 1.11375 7.4125 2.2275 7.625 3.375 C9.60869904 11.30979614 14.62031756 17.98741374 20 24 C11.60433105 21.69270105 6.24574803 15.58006196 1.9375 8.1875 C0.19611641 4.96857882 0 3.86226655 0 0 Z " fill="#E4EFE8" transform="translate(51,78)"/>
<path d="M0 0 C2.10353495 -0.0810206 4.20795952 -0.13919907 6.3125 -0.1875 C7.48425781 -0.22230469 8.65601563 -0.25710937 9.86328125 -0.29296875 C13 0 13 0 14.8984375 1.3203125 C16.59173815 3.90229576 16.31931621 5.99842759 16 9 C15.34 9.66 14.68 10.32 14 11 C14.39504441 13.9628331 15.59817629 16.38326241 17 19 C14.75 19.3125 14.75 19.3125 12 19 C8 14.89189189 8 14.89189189 8 12 C6.68 11.67 5.36 11.34 4 11 C5 9 5 9 8.0625 7.875 C9.031875 7.58625 10.00125 7.2975 11 7 C10.67 5.68 10.34 4.36 10 3 C6.7 2.34 3.4 1.68 0 1 C0 0.67 0 0.34 0 0 Z " fill="#156932" transform="translate(185,83)"/>
<path d="M0 0 C0.66 0.99 1.32 1.98 2 3 C7.50626881 10.9951705 12.38198331 16.69167599 22 19 C22.33 19.66 22.66 20.32 23 21 C18.99159982 22.04237357 15.54859043 22.64974027 11.64453125 21.01171875 C6.41690353 17.67359503 1.2580626 13.34276699 -2 8 C-1.67 7.01 -1.34 6.02 -1 5 C-1 5.66 -1 6.32 -1 7 C-0.34 7 0.32 7 1 7 C1.66 7.66 2.32 8.32 3 9 C2.505 8.2575 2.01 7.515 1.5 6.75 C0 4 0 4 0 0 Z " fill="#177238" transform="translate(52,83)"/>
<path d="M0 0 C3.375 -0.125 3.375 -0.125 7 0 C9 2 9 2 9 6 C9.66 6.33 10.32 6.66 11 7 C10.773125 7.53625 10.54625 8.0725 10.3125 8.625 C9.86041855 12.06081901 11.32821985 14.05766694 13 17 C10.75 17.375 10.75 17.375 8 17 C6.59886384 15.04690112 5.26660533 13.04291182 4 11 C1.89960669 9.61131484 1.89960669 9.61131484 0 9 C1.32 8.67 2.64 8.34 4 8 C2.68 7.67 1.36 7.34 0 7 C0 4.69 0 2.38 0 0 Z " fill="#1D2827" transform="translate(210,58)"/>
<path d="M0 0 C9.1796875 -0.1953125 9.1796875 -0.1953125 12 0 C14.18647619 2.18647619 14.91236229 2.93268023 15 6 C12.9375 8.75 12.9375 8.75 10 11 C6.6875 11.3125 6.6875 11.3125 4 11 C4 8.36 4 5.72 4 3 C6.31 3 8.62 3 11 3 C11 2.34 11 1.68 11 1 C7.7 1 4.4 1 1 1 C1 7.27 1 13.54 1 20 C0.67 20 0.34 20 0 20 C0 13.4 0 6.8 0 0 Z " fill="#5F6968" transform="translate(145,55)"/>
<path d="M0 0 C1.98 0 3.96 0 6 0 C5.8590651 2.43787385 5.71245458 4.87517853 5.5625 7.3125 C5.50352539 8.34793945 5.50352539 8.34793945 5.44335938 9.40429688 C5.25072585 12.47161535 4.97677283 15.06968152 4 18 C2.68 18 1.36 18 0 18 C0 12.06 0 6.12 0 0 Z " fill="#2C8D3F" transform="translate(90,52)"/>
<path d="M0 0 C2.77269398 0.95320723 5.54309829 1.91231388 8.3125 2.875 C9.09818359 3.14441406 9.88386719 3.41382812 10.69335938 3.69140625 C11.8293457 4.08779297 11.8293457 4.08779297 12.98828125 4.4921875 C14.03302612 4.85352783 14.03302612 4.85352783 15.09887695 5.22216797 C17 6 17 6 20 8 C20.6875 11.625 20.6875 11.625 21 15 C21.66 15 22.32 15 23 15 C22.34 13.02 21.68 11.04 21 9 C22.32 9.66 23.64 10.32 25 11 C24.69593558 14.24519666 24.43719323 15.61900552 21.93359375 17.80078125 C21.10988281 18.29964844 20.28617188 18.79851562 19.4375 19.3125 C18.61121094 19.82425781 17.78492187 20.33601563 16.93359375 20.86328125 C16.29550781 21.23839844 15.65742187 21.61351563 15 22 C16.875 18.125 16.875 18.125 18 17 C18.07148199 15.64756083 18.08399454 14.29165633 18.0625 12.9375 C18.041875 11.638125 18.02125 10.33875 18 9 C17.31035156 8.82984375 16.62070313 8.6596875 15.91015625 8.484375 C9.62265252 6.86290628 3.83890271 4.84015761 -2 2 C-1.34 1.34 -0.68 0.68 0 0 Z " fill="#D2EBD5" transform="translate(72,71)"/>
<path d="M0 0 C0.33 1.32 0.66 2.64 1 4 C3.97 4 6.94 4 10 4 C10.66 2.68 11.32 1.36 12 0 C12.66 0 13.32 0 14 0 C17 6.625 17 6.625 17 10 C15.68 10 14.36 10 13 10 C12.67 8.68 12.34 7.36 12 6 C8.7 6 5.4 6 2 6 C1.67 7.32 1.34 8.64 1 10 C-0.32 10 -1.64 10 -3 10 C-2.39009109 6.44219804 -1.4216319 3.3171411 0 0 Z " fill="#1F2A29" transform="translate(187,65)"/>
<path d="M0 0 C1.65 0 3.3 0 5 0 C5 6.27 5 12.54 5 19 C4.01 19 3.02 19 2 19 C2 14.71 2 10.42 2 6 C1.01 5.67 0.02 5.34 -1 5 C-0.67 3.35 -0.34 1.7 0 0 Z " fill="#111F1E" transform="translate(241,55)"/>
<path d="M0 0 C2 2 2 2 2 5 C3.98 5 5.96 5 8 5 C8.33 5.99 8.66 6.98 9 8 C4.545 8.495 4.545 8.495 0 9 C-0.33 9.99 -0.66 10.98 -1 12 C-2.32 12 -3.64 12 -5 12 C-4.37343743 7.73937456 -3.1323664 3.1323664 0 0 Z " fill="#13642F" transform="translate(168,90)"/>
<path d="M0 0 C2 2 2 2 2.5 4.0625 C2.665 4.701875 2.83 5.34125 3 6 C3.66 6.33 4.32 6.66 5 7 C5.99 6.01 6.98 5.02 8 4 C8.72496458 5.5967195 9.42950397 7.20272608 10.125 8.8125 C10.51945312 9.70582031 10.91390625 10.59914063 11.3203125 11.51953125 C11.65675781 12.74736328 11.65675781 12.74736328 12 14 C11.01 15.485 11.01 15.485 10 17 C9.01 17 8.02 17 7 17 C6.67 14.69 6.34 12.38 6 10 C5.195625 9.690625 4.39125 9.38125 3.5625 9.0625 C1 8 1 8 0 7 C-0.04092937 4.66702567 -0.04241723 2.33294775 0 0 Z " fill="#B1DCBD" transform="translate(86,92)"/>
<path d="M0 0 C0.33 0 0.66 0 1 0 C1 6.93 1 13.86 1 21 C-0.98 21 -2.96 21 -5 21 C-4.01 20.34 -3.02 19.68 -2 19 C-2.7734375 18.13375 -2.7734375 18.13375 -3.5625 17.25 C-5 15 -5 15 -4.8125 13.125 C-4.544375 12.42375 -4.27625 11.7225 -4 11 C-3.649375 9.9275 -3.29875 8.855 -2.9375 7.75 C-2.628125 6.8425 -2.31875 5.935 -2 5 C-1.67 5 -1.34 5 -1 5 C-0.67 3.35 -0.34 1.7 0 0 Z " fill="#E5F0E7" transform="translate(203,82)"/>
<path d="M0 0 C0.33 0 0.66 0 1 0 C1.0269501 2.93756119 1.04681474 5.87487555 1.0625 8.8125 C1.07087891 9.64587891 1.07925781 10.47925781 1.08789062 11.33789062 C1.09111328 12.14033203 1.09433594 12.94277344 1.09765625 13.76953125 C1.10289307 14.50792236 1.10812988 15.24631348 1.11352539 16.00708008 C1 18 1 18 0 21 C-1.65 21 -3.3 21 -5 21 C-4.01 20.34 -3.02 19.68 -2 19 C-2.515625 18.2575 -3.03125 17.515 -3.5625 16.75 C-5 14 -5 14 -4.8125 12.0625 C-4.544375 11.381875 -4.27625 10.70125 -4 10 C-3.690625 9.01 -3.38125 8.02 -3.0625 7 C-2.1887802 4.53302645 -1.23763387 2.29846289 0 0 Z " fill="#E7E9E8" transform="translate(224,55)"/>
<path d="M0 0 C1.32 0.33 2.64 0.66 4 1 C4 7.27 4 13.54 4 20 C2.68 20 1.36 20 0 20 C0 13.4 0 6.8 0 0 Z " fill="#313F3E" transform="translate(164,55)"/>
<path d="M0 0 C1.65 0 3.3 0 5 0 C7.22923777 4.32734391 6.92470553 7.28400182 6 12 C4.02 12 2.04 12 0 12 C0 8.04 0 4.08 0 0 Z " fill="#273635" transform="translate(191,55)"/>
<path d="M0 0 C7.92 0 15.84 0 24 0 C24.33 0.66 24.66 1.32 25 2 C17.41 2 9.82 2 2 2 C2 3.98 2 5.96 2 8 C1.34 7.34 0.68 6.68 0 6 C0 4.02 0 2.04 0 0 Z " fill="#2B8045" transform="translate(44,71)"/>
<path d="M0 0 C0.66 0 1.32 0 2 0 C2 0.66 2 1.32 2 2 C2.99 2 3.98 2 5 2 C5.33 1.34 5.66 0.68 6 0 C6.66 2.31 7.32 4.62 8 7 C5.24921116 7.91692961 3.64051087 8.10886083 0.8125 8.0625 C-1.0746875 8.0315625 -1.0746875 8.0315625 -3 8 C-1.125 2.25 -1.125 2.25 0 0 Z " fill="#2B3636" transform="translate(257,60)"/>
<path d="M0 0 C1.49080078 0.02707031 1.49080078 0.02707031 3.01171875 0.0546875 C3.77097656 0.07789062 4.53023437 0.10109375 5.3125 0.125 C5.6425 1.445 5.9725 2.765 6.3125 4.125 C4.54175083 4.15205729 2.77088289 4.17142195 1 4.1875 C0.01386719 4.19910156 -0.97226563 4.21070312 -1.98828125 4.22265625 C-4.6875 4.125 -4.6875 4.125 -7.6875 3.125 C-7.6875 3.785 -7.6875 4.445 -7.6875 5.125 C-8.3475 5.125 -9.0075 5.125 -9.6875 5.125 C-7.93798051 -0.12355846 -4.97877546 -0.11714766 0 0 Z " fill="#20733F" transform="translate(154.6875,82.875)"/>
<path d="M0 0 C3.3 0 6.6 0 10 0 C10 0.66 10 1.32 10 2 C7.69 2 5.38 2 3 2 C3 4.64 3 7.28 3 10 C2.34 10 1.68 10 1 10 C0.67 10.99 0.34 11.98 0 13 C0 8.71 0 4.42 0 0 Z " fill="#081614" transform="translate(146,56)"/>
<path d="M0 0 C2.31 0 4.62 0 7 0 C7.38218767 1.65614657 7.71395102 3.32457024 8 5 C7 6 7 6 3.4375 6.0625 C2.303125 6.041875 1.16875 6.02125 0 6 C0 4.02 0 2.04 0 0 Z " fill="#EDEEED" transform="translate(150,59)"/>
<path d="M0 0 C2.31 0 4.62 0 7 0 C7.38218767 1.65614657 7.71395102 3.32457024 8 5 C7 6 7 6 3.4375 6.0625 C2.303125 6.041875 1.16875 6.02125 0 6 C0 4.02 0 2.04 0 0 Z " fill="#E8EAE9" transform="translate(210,58)"/>
<path d="M0 0 C2.31 0 4.62 0 7 0 C7.625 1.875 7.625 1.875 8 4 C6 6 6 6 2.875 6.125 C1.451875 6.063125 1.451875 6.063125 0 6 C0 4.02 0 2.04 0 0 Z " fill="#EEF6F0" transform="translate(189,86)"/>
<path d="M0 0 C0.99 0.66 1.98 1.32 3 2 C2.01 3.485 2.01 3.485 1 5 C6.445 4.505 6.445 4.505 12 4 C11.67 4.99 11.34 5.98 11 7 C9.20841511 7.02696365 7.41671527 7.04637917 5.625 7.0625 C4.62726563 7.07410156 3.62953125 7.08570312 2.6015625 7.09765625 C0 7 0 7 -2 6 C-1.125 1.125 -1.125 1.125 0 0 Z " fill="#071312" transform="translate(253,63)"/>
<path d="M0 0 C0.33 1.32 0.66 2.64 1 4 C4.63 4 8.26 4 12 4 C12 4.99 12 5.98 12 7 C8.04 7 4.08 7 0 7 C0 4.69 0 2.38 0 0 Z " fill="#157233" transform="translate(206,87)"/>
<path d="M0 0 C3.73700383 0.65375481 6.39590351 2.33286838 9.5625 4.375 C10.51253906 4.98085938 11.46257813 5.58671875 12.44140625 6.2109375 C15 8 15 8 16.65234375 9.7265625 C18.05439625 11.34340455 18.05439625 11.34340455 21 11 C21 11.66 21 12.32 21 13 C20.01 13.33 19.02 13.66 18 14 C15.80078125 12.5234375 15.80078125 12.5234375 13.3125 10.375 C10.10372358 7.68452814 6.96009851 5.22889642 3.375 3.0625 C2.26125 2.381875 1.1475 1.70125 0 1 C0 0.67 0 0.34 0 0 Z " fill="#DCECB7" transform="translate(36,54)"/>
<path d="M0 0 C0.66 0 1.32 0 2 0 C2 1.98 2 3.96 2 6 C5.63 6 9.26 6 13 6 C13 6.66 13 7.32 13 8 C8.71 8 4.42 8 0 8 C0 5.36 0 2.72 0 0 Z " fill="#05642A" transform="translate(206,94)"/>
<path d="M0 0 C0.53625 0.680625 1.0725 1.36125 1.625 2.0625 C4.35076561 5.43384168 7.16483178 8.72065543 10 12 C4.03648545 10.72210402 1.51582826 7.66283606 -2 3 C-1.34 3 -0.68 3 0 3 C0 2.01 0 1.02 0 0 Z " fill="#D8EBDD" transform="translate(61,90)"/>
<path d="M0 0 C5.61 0.66 11.22 1.32 17 2 C17 2.33 17 2.66 17 3 C14.69 3.33 12.38 3.66 10 4 C10 4.99 10 5.98 10 7 C6.37 5.35 2.74 3.7 -1 2 C-0.67 1.34 -0.34 0.68 0 0 Z " fill="#B7D9BE" transform="translate(89,69)"/>
<path d="M0 0 C0.33 0 0.66 0 1 0 C1.33 2.31 1.66 4.62 2 7 C3.299375 7.12375 4.59875 7.2475 5.9375 7.375 C8.15234375 7.5859375 8.15234375 7.5859375 10 8 C10.33 8.66 10.66 9.32 11 10 C7.7 10 4.4 10 1 10 C1 12.64 1 15.28 1 18 C0.67 18 0.34 18 0 18 C0 12.06 0 6.12 0 0 Z " fill="#071515" transform="translate(167,56)"/>
<path d="M0 0 C0.33 1.32 0.66 2.64 1 4 C4.3 4.33 7.6 4.66 11 5 C11 5.33 11 5.66 11 6 C8.03 6 5.06 6 2 6 C1.67 7.32 1.34 8.64 1 10 C-0.32 10 -1.64 10 -3 10 C-2.39009109 6.44219804 -1.4216319 3.3171411 0 0 Z " fill="#424C4C" transform="translate(187,65)"/>
<path d="M0 0 C0.66 1.32 1.32 2.64 2 4 C2.66 4 3.32 4 4 4 C4.33 3.01 4.66 2.02 5 1 C8 5.75 8 5.75 8 8 C6.02 8 4.04 8 2 8 C1 6 0 4 -1 2 C-0.67 1.34 -0.34 0.68 0 0 Z " fill="#9CC0AA" transform="translate(168,87)"/>
<path d="M0 0 C0.12375 0.639375 0.2475 1.27875 0.375 1.9375 C0.58125 2.618125 0.7875 3.29875 1 4 C1.66 4.33 2.32 4.66 3 5 C2.01 6.32 1.02 7.64 0 9 C0 8.34 0 7.68 0 7 C-0.5775 7.37125 -1.155 7.7425 -1.75 8.125 C-4 9 -4 9 -6.25 8.125 C-6.8275 7.75375 -7.405 7.3825 -8 7 C-6.68 6.67 -5.36 6.34 -4 6 C-5.32 5.34 -6.64 4.68 -8 4 C-4.535 3.505 -4.535 3.505 -1 3 C-0.67 2.01 -0.34 1.02 0 0 Z " fill="#313D3D" transform="translate(218,60)"/>
<path d="M0 0 C0.66 0 1.32 0 2 0 C2 0.66 2 1.32 2 2 C4.64 2 7.28 2 10 2 C10 2.33 10 2.66 10 3 C7.36 3 4.72 3 2 3 C2 4.98 2 6.96 2 9 C1.01 9 0.02 9 -1 9 C-0.67 6.03 -0.34 3.06 0 0 Z " fill="#152121" transform="translate(147,66)"/>
<path d="M0 0 C2.58148508 0.35606691 3.82045747 0.83328193 5.75 2.625 C7.43754802 5.83134123 7.20576047 8.43348514 7 12 C6.01 12.495 6.01 12.495 5 13 C4.89042969 12.39671875 4.78085938 11.7934375 4.66796875 11.171875 C3.49202872 5.06315013 3.49202872 5.06315013 0 0 Z " fill="#D4EDDA" transform="translate(99,75)"/>
<path d="M0 0 C0.99 0 1.98 0 3 0 C2.34 3.3 1.68 6.6 1 10 C0.01 9.34 -0.98 8.68 -2 8 C-2.1875 4.875 -2.1875 4.875 -2 2 C-1.34 2 -0.68 2 0 2 C0 1.34 0 0.68 0 0 Z " fill="#036C25" transform="translate(147,86)"/>
<path d="M0 0 C0.99 0.33 1.98 0.66 3 1 C2.67 3.31 2.34 5.62 2 8 C0.68 8 -0.64 8 -2 8 C-1.125 2.25 -1.125 2.25 0 0 Z " fill="#2E3837" transform="translate(250,67)"/>
<path d="M0 0 C0.66 0 1.32 0 2 0 C2.66 2.31 3.32 4.62 4 7 C2.02 7 0.04 7 -2 7 C-1.34 4.69 -0.68 2.38 0 0 Z " fill="#D0D4D3" transform="translate(257,60)"/>
<path d="M0 0 C0.33 0 0.66 0 1 0 C1.33 2.31 1.66 4.62 2 7 C2.33 7 2.66 7 3 7 C3 9.31 3 11.62 3 14 C2.01 14 1.02 14 0 14 C0 9.38 0 4.76 0 0 Z " fill="#09692D" transform="translate(185,88)"/>
<path d="M0 0 C3.3 0.33 6.6 0.66 10 1 C10 1.33 10 1.66 10 2 C8.02 2 6.04 2 4 2 C4 3.98 4 5.96 4 8 C2 6.25 2 6.25 0 4 C0 2.68 0 1.36 0 0 Z " fill="#297F47" transform="translate(185,84)"/>
<path d="M0 0 C2 1 2 1 3.125 4.0625 C3.41375 5.031875 3.7025 6.00125 4 7 C2.02 7 0.04 7 -2 7 C-1.34 4.69 -0.68 2.38 0 0 Z " fill="#DDE1E0" transform="translate(193,60)"/>
<path d="M0 0 C2.35448165 2.55068845 2.98327924 3.71017358 3.1875 7.25 C3.125625 8.1575 3.06375 9.065 3 10 C0.51280729 7.08025204 -0.58572305 4.83206182 -1 1 C-0.67 0.67 -0.34 0.34 0 0 Z " fill="#166A28" transform="translate(93,96)"/>
<path d="M0 0 C0.33 0 0.66 0 1 0 C1.13277344 0.60328125 1.26554688 1.2065625 1.40234375 1.828125 C1.66724609 3.02695313 1.66724609 3.02695313 1.9375 4.25 C2.11152344 5.03890625 2.28554687 5.8278125 2.46484375 6.640625 C2.947556 8.76878703 3.46163178 10.88532842 4 13 C2.015625 11.82421875 2.015625 11.82421875 0 10 C-0.390625 7.51953125 -0.390625 7.51953125 -0.25 4.8125 C-0.21390625 3.91144531 -0.1778125 3.01039062 -0.140625 2.08203125 C-0.07101563 1.05142578 -0.07101563 1.05142578 0 0 Z " fill="#2C7745" transform="translate(144,88)"/>
<path d="M0 0 C2.31 0 4.62 0 7 0 C6.67 1.32 6.34 2.64 6 4 C3.69 3.67 1.38 3.34 -1 3 C-0.67 2.01 -0.34 1.02 0 0 Z " fill="#0D6A2C" transform="translate(190,92)"/>
<path d="M0 0 C1.231394 2.46278801 1.07159196 4.2795055 1 7 C-0.98 7.99 -0.98 7.99 -3 9 C-2.5020163 5.26512223 -2.12508244 3.18762365 0 0 Z " fill="#92C24A" transform="translate(101,51)"/>
<path d="M0 0 C1.65 0.33 3.3 0.66 5 1 C5 1.99 5 2.98 5 4 C3.35 4 1.7 4 0 4 C0 2.68 0 1.36 0 0 Z " fill="#E1F0E7" transform="translate(95,37)"/>
<path d="M0 0 C0.66 1.32 1.32 2.64 2 4 C1.01 5.485 1.01 5.485 0 7 C-0.99 7 -1.98 7 -3 7 C-2.25 2.25 -2.25 2.25 0 0 Z " fill="#8DC59C" transform="translate(96,102)"/>
<path d="M0 0 C0.8353125 0.556875 0.8353125 0.556875 1.6875 1.125 C1.6875 1.455 1.6875 1.785 1.6875 2.125 C-2.7675 2.62 -2.7675 2.62 -7.3125 3.125 C-7.3125 2.465 -7.3125 1.805 -7.3125 1.125 C-2.88173077 -1.09038462 -2.88173077 -1.09038462 0 0 Z " fill="#368F50" transform="translate(73.3125,101.875)"/>
<path d="M0 0 C2.91227269 3.28804981 4.49701212 5.59885603 5 10 C4.34 10 3.68 10 3 10 C0 3.375 0 3.375 0 0 Z " fill="#ADDAB6" transform="translate(94,95)"/>
<path d="M0 0 C2.64 0 5.28 0 8 0 C7.34 0.66 6.68 1.32 6 2 C6.66 3.32 7.32 4.64 8 6 C6.66402348 5.19185349 5.331275 4.37836819 4 3.5625 C3.2575 3.11003906 2.515 2.65757813 1.75 2.19140625 C1.1725 1.79824219 0.595 1.40507813 0 1 C0 0.67 0 0.34 0 0 Z " fill="#187230" transform="translate(97,72)"/>
<path d="M0 0 C0 0.66 0 1.32 0 2 C-2.64 2.66 -5.28 3.32 -8 4 C-8 3.34 -8 2.68 -8 2 C-3.61016949 -1.20338983 -3.61016949 -1.20338983 0 0 Z " fill="#85C637" transform="translate(107,59)"/>
<path d="M0 0 C0.66 0.33 1.32 0.66 2 1 C2 1.66 2 2.32 2 3 C3.32 3 4.64 3 6 3 C6.33 2.01 6.66 1.02 7 0 C6.67 1.65 6.34 3.3 6 5 C3.36 4.34 0.72 3.68 -2 3 C-1.34 2.67 -0.68 2.34 0 2 C0 1.34 0 0.68 0 0 Z " fill="#B2D6BE" transform="translate(161,99)"/>
<path d="M0 0 C2 2 2 2 2.125 5.125 C2.08375 6.07375 2.0425 7.0225 2 8 C1.34 8 0.68 8 0 8 C-1.125 2.25 -1.125 2.25 0 0 Z " fill="#296E40" transform="translate(170,83)"/>
<path d="M0 0 C0.66 0 1.32 0 2 0 C2.93065133 2.60582371 3.14917407 3.64198224 2.0625 6.25 C1.5365625 7.11625 1.5365625 7.11625 1 8 C0.01 6.68 -0.98 5.36 -2 4 C-1.34 2.68 -0.68 1.36 0 0 Z " fill="#253232" transform="translate(199,65)"/>
<path d="M0 0 C0 0.99 0 1.98 0 3 C-2.9063515 5.80255323 -3.78825048 6 -8 6 C-6.72553565 3.4510713 -5.53636507 3.19358356 -3 2 C-2.01 1.34 -1.02 0.68 0 0 Z " fill="#D7EEB3" transform="translate(105,55)"/>
<path d="M0 0 C0.94875 0.350625 1.8975 0.70125 2.875 1.0625 C2.875 2.0525 2.875 3.0425 2.875 4.0625 C-2.875 2.3125 -2.875 2.3125 -5.125 0.0625 C-3.125 -0.9375 -3.125 -0.9375 0 0 Z " fill="#C7E3CC" transform="translate(75.125,71.9375)"/>
<path d="M0 0 C2.31 0.66 4.62 1.32 7 2 C7 2.66 7 3.32 7 4 C1.25 3.25 1.25 3.25 -1 1 C-0.67 0.67 -0.34 0.34 0 0 Z " fill="#CAE7D2" transform="translate(89,69)"/>
</svg>
